<?xml version="1.0" standalone="no"?>
<!DOCTYPE svg PUBLIC "-//W3C//DTD SVG 20010904//EN"
 "http://www.w3.org/TR/2001/REC-SVG-20010904/DTD/svg10.dtd">
<svg version="1.0" xmlns="http://www.w3.org/2000/svg"
 width="50px" height="65px" viewBox="0 0 3508.000000 2481.000000"
 preserveAspectRatio="xMidYMid meet">
<metadata>
Created by potrace 1.16, written by Peter Selinger 2001-2019
</metadata>
<g transform="translate(0.000000,2481.000000) scale(0.100000,-0.100000)"
fill="#fcd469" stroke="none">
<path d="M10760 21254 c-19 -2 -91 -9 -160 -14 -374 -33 -804 -123 -1160 -245
-213 -73 -350 -130 -566 -235 -545 -264 -1007 -592 -1429 -1015 -330 -330
-584 -662 -816 -1065 -82 -143 -254 -489 -261 -523 -2 -15 204 -107 1252 -558
690 -297 1264 -542 1275 -545 17 -4 29 15 87 133 308 637 863 1091 1538 1259
289 71 202 68 1655 72 911 2 1350 0 1440 -8 636 -55 1254 -382 1650 -872 169
-209 335 -514 419 -768 86 -262 116 -466 116 -797 0 -588 -72 -967 -250 -1328
-194 -394 -467 -701 -1065 -1201 -247 -207 -718 -581 -764 -607 -20 -12 -1876
-1653 -4124 -3646 l-4087 -3624 0 -1063 0 -1064 7928 0 c4554 0 7921 4 7912 9
-8 5 -73 32 -143 60 -303 121 -789 353 -1087 519 -696 387 -1343 853 -1894
1368 -174 162 -515 509 -650 661 l-108 123 -3532 2 -3532 3 2536 2257 c1614
1437 2597 2305 2705 2389 94 73 185 145 204 160 19 16 36 27 37 26 1 -1 14
-74 28 -162 145 -895 407 -1695 827 -2527 864 -1709 2228 -3067 3959 -3942
1064 -539 2063 -820 3270 -923 291 -25 1097 -25 1390 0 413 35 734 79 1100
153 962 193 1848 534 2689 1033 159 94 421 265 421 274 0 11 -1508 2235 -1521
2243 -5 3 -55 -23 -112 -59 -1039 -649 -2311 -986 -3513 -929 -1325 63 -2527
505 -3561 1309 -1194 930 -2019 2308 -2267 3789 -184 1096 -64 2258 335 3246
580 1438 1662 2604 3044 3283 712 349 1380 536 2175 607 194 17 839 17 1030 0
1016 -93 1896 -389 2734 -921 70 -44 131 -81 134 -80 9 0 1516 2225 1520 2242
3 17 -282 200 -563 362 -1099 633 -2294 1004 -3610 1122 -289 26 -1170 26
-1465 0 -1378 -120 -2579 -509 -3783 -1224 -700 -415 -1415 -992 -1960 -1581
l-95 -104 -66 129 c-228 449 -558 903 -921 1268 -780 784 -1840 1326 -2895
1480 -347 51 -253 48 -1885 50 -841 1 -1546 1 -1565 -1z"/>
</g>
</svg>
